<svg width="24" height="24" viewBox="0 0 24 24" fill="none" xmlns="http://www.w3.org/2000/svg">
<g clip-path="url(#clip0_1205_99408)">
<circle cx="12" cy="12" r="12" fill="#6C6A82"/>
<rect x="-3" y="-1" width="29.2793" height="25" fill="#0093D7"/>
<path d="M8.32889 10.6667C7.59518 10.6667 7 11.2615 7 11.9949V14.6718C7 15.4051 7.59518 16 8.32889 16H15.6711C16.4048 16 17 15.4051 17 14.6718V9.32821C17 8.59487 16.4048 8 15.6711 8H7V9.33333H15.2401C15.4761 9.33333 15.6711 9.52821 15.6711 9.7641V14.2359C15.6711 14.4718 15.4761 14.6667 15.2401 14.6667H8.76501C8.52899 14.6667 8.33402 14.4718 8.33402 14.2359V12.4308C8.33402 12.1949 8.52899 12 8.76501 12H14.332V10.6667H8.32889Z" fill="white"/>
</g>
<defs>
<clipPath id="clip0_1205_99408">
<rect width="24" height="24" rx="12" fill="white"/>
</clipPath>
</defs>
</svg>
