<svg width="24" height="24" viewBox="0 0 24 24" fill="none" xmlns="http://www.w3.org/2000/svg">
<g clip-path="url(#clip0_2635_21743)">
<path d="M20 0H4C1.79086 0 0 1.79086 0 4V20C0 22.2091 1.79086 24 4 24H20C22.2091 24 24 22.2091 24 20V4C24 1.79086 22.2091 0 20 0Z" fill="#F5BC00"/>
<path d="M9.40999 10.9363L11.9994 8.34703L14.5901 10.9376L16.0967 9.431L11.9994 5.3335L7.90332 9.4296L9.40999 10.9363Z" fill="white"/>
<path d="M8.34634 11.9998L6.83971 10.4932L5.33301 11.9999L6.83964 13.5065L8.34634 11.9998Z" fill="white"/>
<path d="M9.41124 13.0638L12.0006 15.653L14.5912 13.0625L16.0987 14.5683L16.0979 14.5692L12.0006 18.6665L7.90444 14.5705L7.90234 14.5684L9.41124 13.0638Z" fill="white"/>
<path d="M17.16 13.5075L18.6667 12.0008L17.16 10.4941L15.6533 12.0009L17.16 13.5075Z" fill="white"/>
<path d="M13.5276 11.9991H13.5282L11.9993 10.4702L10.8695 11.6001L10.7396 11.7299L10.4718 11.9977L10.4697 11.9998L10.4718 12.002L11.9993 13.5295L13.5282 12.0006L13.529 11.9998L13.5276 11.9991Z" fill="white"/>
</g>
<defs>
<clipPath id="clip0_2635_21743">
<rect width="24" height="24" fill="white"/>
</clipPath>
</defs>
</svg>
