<svg width="24" height="24" viewBox="0 0 24 24" fill="none" xmlns="http://www.w3.org/2000/svg">
<g clip-path="url(#clip0_2635_21736)">
<path d="M20 0H4C1.79086 0 0 1.79086 0 4V20C0 22.2091 1.79086 24 4 24H20C22.2091 24 24 22.2091 24 20V4C24 1.79086 22.2091 0 20 0Z" fill="#1652F0"/>
<path d="M12.0127 15.3335C10.1676 15.3335 8.6731 13.8418 8.6731 12.0002C8.6731 10.1585 10.1676 8.66683 12.0127 8.66683C13.6658 8.66683 15.0378 9.8696 15.3022 11.4446H18.6668C18.383 8.0224 15.5137 5.3335 12.0127 5.3335C8.3252 5.3335 5.3335 8.3196 5.3335 12.0002C5.3335 15.6807 8.3252 18.6668 12.0127 18.6668C15.5137 18.6668 18.383 15.9779 18.6668 12.5557H15.2994C15.035 14.1307 13.6658 15.3335 12.0127 15.3335Z" fill="white"/>
</g>
<defs>
<clipPath id="clip0_2635_21736">
<rect width="24" height="24" fill="white"/>
</clipPath>
</defs>
</svg>
