<svg width="24" height="24" viewBox="0 0 24 24" fill="none" xmlns="http://www.w3.org/2000/svg">
<g clip-path="url(#clip0_2635_21739)">
<path d="M20 0H4C1.79086 0 0 1.79086 0 4V20C0 22.2091 1.79086 24 4 24H20C22.2091 24 24 22.2091 24 20V4C24 1.79086 22.2091 0 20 0Z" fill="#0052FF"/>
<path d="M11.9998 21.3332C17.1545 21.3332 21.3332 17.1545 21.3332 11.9998C21.3332 6.84519 17.1545 2.6665 11.9998 2.6665C6.84518 2.6665 2.6665 6.84519 2.6665 11.9998C2.6665 17.1545 6.84518 21.3332 11.9998 21.3332Z" fill="white"/>
<path d="M14.2739 17.799V10.7695L14.2564 10.7629C14.2418 10.7846 14.2248 10.8053 14.2125 10.8285C13.6017 11.9516 12.72 12.7913 11.5724 13.3526C11.5139 13.3814 11.4549 13.4106 11.3936 13.4323C11.3403 13.4512 11.3242 13.4818 11.3247 13.5375C11.3271 13.912 11.3261 14.2866 11.3261 14.6611C11.3261 15.8055 11.3261 16.9504 11.3261 18.0952C11.3261 18.2028 11.3195 18.2094 11.2167 18.1952C10.3317 18.0749 9.50436 17.7895 8.74536 17.3164C7.7293 16.6824 6.9557 15.8267 6.42643 14.7531C6.1448 14.1819 5.96273 13.5795 5.8665 12.9493C5.79856 12.5044 5.78253 12.0577 5.81036 11.611C5.858 10.8421 6.04246 10.1044 6.37123 9.40623C7.00853 8.0529 8.00146 7.0486 9.34726 6.39623C9.89636 6.13016 10.4761 5.9599 11.0799 5.8679C11.5219 5.80093 11.9662 5.7844 12.4106 5.81223C13.1715 5.86036 13.9012 6.04433 14.5932 6.36696C15.6734 6.87123 16.5419 7.62173 17.1947 8.61893C17.6693 9.34396 17.9745 10.1355 18.1193 10.9907C18.1999 11.4681 18.2221 11.9488 18.191 12.4294C18.1358 13.2766 17.915 14.0814 17.5235 14.8371C16.9282 15.9862 16.0626 16.8711 14.9272 17.4905C14.746 17.5891 14.5559 17.6711 14.3696 17.7598C14.3441 17.7721 14.3173 17.781 14.2748 17.798L14.2739 17.799ZM8.44063 12.0191C8.44063 12.4615 8.4416 12.9045 8.4397 13.3469C8.4397 13.4186 8.45006 13.4507 8.5364 13.4502C8.92226 13.4483 9.30386 13.4097 9.6789 13.3215C11.6676 12.8545 13.062 11.6738 13.8762 9.80576C14.104 9.28263 14.2272 8.72933 14.2899 8.16326C14.3017 8.05523 14.2951 8.04676 14.2026 8.04676C13.3045 8.04676 12.4059 8.04723 11.5077 8.04533C11.4407 8.04533 11.4172 8.07033 11.4049 8.13166C11.2205 9.043 10.7247 9.73453 9.9209 10.2001C9.502 10.4431 9.04586 10.5666 8.56093 10.5817C8.44113 10.5855 8.44063 10.5898 8.44063 10.7072C8.44063 11.1445 8.44063 11.5818 8.44063 12.0195V12.0191Z" fill="#0052FF"/>
</g>
<defs>
<clipPath id="clip0_2635_21739">
<rect width="24" height="24" fill="white"/>
</clipPath>
</defs>
</svg>
