<svg width="24" height="24" viewBox="0 0 24 24" fill="none" xmlns="http://www.w3.org/2000/svg">
<g clip-path="url(#clip0_2635_21772)">
<path d="M20 0H4C1.79086 0 0 1.79086 0 4V20C0 22.2091 1.79086 24 4 24H20C22.2091 24 24 22.2091 24 20V4C24 1.79086 22.2091 0 20 0Z" fill="white"/>
<path d="M17.8888 6.04834L12.8853 9.75057L13.8157 7.56874L17.8888 6.04834Z" fill="#E17726" stroke="#E17726" stroke-width="0.25" stroke-linecap="round" stroke-linejoin="round"/>
<path d="M6.34766 6.04834L11.3066 9.78511L10.4207 7.56874L6.34766 6.04834Z" fill="#E27625" stroke="#E27625" stroke-width="0.25" stroke-linecap="round" stroke-linejoin="round"/>
<path d="M16.0876 14.6318L14.7563 16.6656L17.607 17.4505L18.4236 14.6763L16.0876 14.6318Z" fill="#E27625" stroke="#E27625" stroke-width="0.25" stroke-linecap="round" stroke-linejoin="round"/>
<path d="M5.81787 14.6763L6.6295 17.4505L9.4752 16.6656L8.14887 14.6318L5.81787 14.6763Z" fill="#E27625" stroke="#E27625" stroke-width="0.25" stroke-linecap="round" stroke-linejoin="round"/>
<path d="M9.32162 11.1963L8.52979 12.3909L11.3507 12.5192L11.2567 9.4834L9.32162 11.1963Z" fill="#E27625" stroke="#E27625" stroke-width="0.25" stroke-linecap="round" stroke-linejoin="round"/>
<path d="M14.9143 11.1967L12.9496 9.44922L12.8853 12.5196L15.7062 12.3912L14.9143 11.1967Z" fill="#E27625" stroke="#E27625" stroke-width="0.25" stroke-linecap="round" stroke-linejoin="round"/>
<path d="M9.4751 16.6649L11.1825 15.8405L9.71266 14.6953L9.4751 16.6649Z" fill="#E27625" stroke="#E27625" stroke-width="0.25" stroke-linecap="round" stroke-linejoin="round"/>
<path d="M13.0532 15.8405L14.7557 16.6649L14.523 14.6953L13.0532 15.8405Z" fill="#E27625" stroke="#E27625" stroke-width="0.25" stroke-linecap="round" stroke-linejoin="round"/>
<path d="M14.7557 16.6657L13.0532 15.8413L13.1918 16.947L13.1769 17.416L14.7557 16.6657Z" fill="#D5BFB2" stroke="#D5BFB2" stroke-width="0.25" stroke-linecap="round" stroke-linejoin="round"/>
<path d="M9.4751 16.6657L11.0588 17.416L11.0489 16.947L11.1825 15.8413L9.4751 16.6657Z" fill="#D5BFB2" stroke="#D5BFB2" stroke-width="0.25" stroke-linecap="round" stroke-linejoin="round"/>
<path d="M11.0888 13.965L9.67334 13.5504L10.673 13.0913L11.0888 13.965Z" fill="#233447" stroke="#233447" stroke-width="0.25" stroke-linecap="round" stroke-linejoin="round"/>
<path d="M13.147 13.965L13.5627 13.0913L14.5673 13.5504L13.147 13.965Z" fill="#233447" stroke="#233447" stroke-width="0.25" stroke-linecap="round" stroke-linejoin="round"/>
<path d="M9.47624 16.6656L9.7237 14.6318L8.1499 14.6763L9.47624 16.6656Z" fill="#CC6228" stroke="#CC6228" stroke-width="0.25" stroke-linecap="round" stroke-linejoin="round"/>
<path d="M14.5132 14.6318L14.7557 16.6656L16.0869 14.6763L14.5132 14.6318Z" fill="#CC6228" stroke="#CC6228" stroke-width="0.25" stroke-linecap="round" stroke-linejoin="round"/>
<path d="M15.7062 12.3906L12.8853 12.519L13.1476 13.9653L13.5633 13.0916L14.5679 13.5507L15.7062 12.3906Z" fill="#CC6228" stroke="#CC6228" stroke-width="0.25" stroke-linecap="round" stroke-linejoin="round"/>
<path d="M9.67302 13.5507L10.6727 13.0916L11.0885 13.9653L11.3507 12.519L8.52979 12.3906L9.67302 13.5507Z" fill="#CC6228" stroke="#CC6228" stroke-width="0.25" stroke-linecap="round" stroke-linejoin="round"/>
<path d="M8.52979 12.3906L9.71262 14.6959L9.67302 13.5507L8.52979 12.3906Z" fill="#E27525" stroke="#E27525" stroke-width="0.25" stroke-linecap="round" stroke-linejoin="round"/>
<path d="M14.568 13.5507L14.5234 14.6959L15.7063 12.3906L14.568 13.5507Z" fill="#E27525" stroke="#E27525" stroke-width="0.25" stroke-linecap="round" stroke-linejoin="round"/>
<path d="M11.3507 12.5195L11.0884 13.9659L11.42 15.6738L11.4942 13.4229L11.3507 12.5195Z" fill="#E27525" stroke="#E27525" stroke-width="0.25" stroke-linecap="round" stroke-linejoin="round"/>
<path d="M12.8862 12.5195L12.7476 13.418L12.8169 15.6738L13.1484 13.9659L12.8862 12.5195Z" fill="#E27525" stroke="#E27525" stroke-width="0.25" stroke-linecap="round" stroke-linejoin="round"/>
<path d="M13.148 13.9654L12.8164 15.6734L13.054 15.8412L14.5238 14.696L14.5684 13.5508L13.148 13.9654Z" fill="#F5841F" stroke="#F5841F" stroke-width="0.25" stroke-linecap="round" stroke-linejoin="round"/>
<path d="M9.67334 13.5508L9.71297 14.696L11.1828 15.8412L11.4204 15.6734L11.0888 13.9654L9.67334 13.5508Z" fill="#F5841F" stroke="#F5841F" stroke-width="0.25" stroke-linecap="round" stroke-linejoin="round"/>
<path d="M13.177 17.4159L13.1918 16.9469L13.0631 16.8383H11.1726L11.0489 16.9469L11.0588 17.4159L9.4751 16.6655L10.0294 17.1197L11.1528 17.8947H13.078L14.2063 17.1197L14.7557 16.6655L13.177 17.4159Z" fill="#C0AC9D" stroke="#C0AC9D" stroke-width="0.25" stroke-linecap="round" stroke-linejoin="round"/>
<path d="M13.0537 15.8412L12.8161 15.6733H11.4205L11.183 15.8412L11.0493 16.9469L11.173 16.8383H13.0636L13.1923 16.9469L13.0537 15.8412Z" fill="#161616" stroke="#161616" stroke-width="0.25" stroke-linecap="round" stroke-linejoin="round"/>
<path d="M18.1012 9.99244L18.5219 7.94881L17.8884 6.04834L13.0532 9.62717L14.914 11.1969L17.5419 11.962L18.121 11.2858L17.8686 11.1031L18.2694 10.7378L17.9626 10.5009L18.3635 10.1948L18.1012 9.99244Z" fill="#763E1A" stroke="#763E1A" stroke-width="0.25" stroke-linecap="round" stroke-linejoin="round"/>
<path d="M5.71484 7.94881L6.14048 9.99244L5.86828 10.1948L6.27408 10.5009L5.96724 10.7378L6.36811 11.1031L6.11571 11.2858L6.69474 11.962L9.32271 11.1969L11.1835 9.62717L6.34834 6.04834L5.71484 7.94881Z" fill="#763E1A" stroke="#763E1A" stroke-width="0.25" stroke-linecap="round" stroke-linejoin="round"/>
<path d="M17.5423 11.9619L14.9144 11.1968L15.7063 12.3914L14.5234 14.6966L16.0873 14.6769H18.4232L17.5423 11.9619Z" fill="#F5841F" stroke="#F5841F" stroke-width="0.25" stroke-linecap="round" stroke-linejoin="round"/>
<path d="M9.32177 11.1968L6.69384 11.9619L5.81787 14.6769H8.14887L9.71274 14.6966L8.52994 12.3914L9.32177 11.1968Z" fill="#F5841F" stroke="#F5841F" stroke-width="0.25" stroke-linecap="round" stroke-linejoin="round"/>
<path d="M12.885 12.519L13.0533 9.6263L13.8154 7.56787H10.4204L11.1825 9.6263L11.3508 12.519L11.4151 13.4272L11.4201 15.6733H12.8157L12.8207 13.4272L12.885 12.519Z" fill="#F5841F" stroke="#F5841F" stroke-width="0.25" stroke-linecap="round" stroke-linejoin="round"/>
</g>
<defs>
<clipPath id="clip0_2635_21772">
<rect width="24" height="24" fill="white"/>
</clipPath>
</defs>
</svg>
