<svg width="24" height="24" viewBox="0 0 24 24" fill="none" xmlns="http://www.w3.org/2000/svg">
<g clip-path="url(#clip0_2635_21751)">
<path d="M20 0H4C1.79086 0 0 1.79086 0 4V20C0 22.2091 1.79086 24 4 24H20C22.2091 24 24 22.2091 24 20V4C24 1.79086 22.2091 0 20 0Z" fill="#3375BB"/>
<path fill-rule="evenodd" clip-rule="evenodd" d="M6.09797 7.82774C5.6665 8.67484 5.6665 9.78317 5.6665 11.9998C5.6665 14.2165 5.6665 15.3248 6.09797 16.1719C6.47797 16.9161 7.08357 17.5217 7.82774 17.9017C8.67484 18.3332 9.78317 18.3332 11.9998 18.3332C14.2165 18.3332 15.3248 18.3332 16.1719 17.9017C16.9161 17.5217 17.5217 16.9161 17.9017 16.1719C18.3332 15.3248 18.3332 14.2165 18.3332 11.9998C18.3332 9.78317 18.3332 8.67484 17.9017 7.82774C17.5217 7.08357 16.9161 6.47797 16.1719 6.09797C15.3248 5.6665 14.2165 5.6665 11.9998 5.6665C9.78317 5.6665 8.67484 5.6665 7.82774 6.09797C7.08357 6.47797 6.47797 7.08357 6.09797 7.82774ZM15.1606 9.08254C15.2714 9.08254 15.3763 9.12807 15.4535 9.20527C15.5307 9.28444 15.5742 9.3913 15.5722 9.50014C15.5525 10.6797 15.5069 11.5822 15.4218 12.2967C15.3387 13.0112 15.214 13.5416 15.026 13.9711C14.8993 14.2581 14.743 14.4956 14.5589 14.6974C14.3115 14.9646 14.0285 15.1586 13.7197 15.3427C13.5877 15.4216 13.4505 15.4995 13.3065 15.5813C12.9994 15.7557 12.6616 15.9475 12.2789 16.2036C12.1404 16.2966 11.9603 16.2966 11.8217 16.2036C11.4331 15.9445 11.0909 15.7504 10.781 15.5745C10.712 15.5354 10.6447 15.4972 10.5788 15.4594C10.2166 15.2496 9.89007 15.0497 9.60507 14.7608C9.41507 14.5708 9.2508 14.3392 9.12017 14.0641C8.94204 13.696 8.8213 13.2507 8.73224 12.6747C8.6135 11.9048 8.55414 10.8974 8.53237 9.50014C8.53037 9.3913 8.57194 9.28444 8.64914 9.20527C8.7263 9.12807 8.8332 9.08254 8.94404 9.08254H9.11424C9.6387 9.08454 10.7965 9.03307 11.798 8.25327C11.9464 8.13847 12.1542 8.13847 12.3027 8.25327C13.3041 9.03307 14.4619 9.08454 14.9884 9.08254H15.1606ZM14.2403 13.7079C14.3689 13.4426 14.4758 13.0765 14.5569 12.55C14.6539 11.9207 14.7133 11.0657 14.741 9.90194C14.1235 9.8841 13.0627 9.76537 12.0513 9.08454C11.04 9.76337 9.97914 9.88214 9.3636 9.90194C9.38537 10.8638 9.4289 11.6119 9.49817 12.1997C9.57734 12.8687 9.69017 13.3219 9.83067 13.6406C9.9237 13.8523 10.0266 14.0047 10.1493 14.1393C10.3136 14.3194 10.5214 14.4679 10.8044 14.6381C10.9218 14.7085 11.0513 14.7818 11.1922 14.8615C11.4432 15.0036 11.7306 15.1663 12.0513 15.3704C12.3661 15.1696 12.6494 15.0086 12.8975 14.8676C12.9723 14.8251 13.0438 14.7844 13.1121 14.7449C13.4605 14.545 13.7178 14.3788 13.9097 14.1848C14.0384 14.0522 14.1433 13.9078 14.2403 13.7079Z" fill="white"/>
</g>
<defs>
<clipPath id="clip0_2635_21751">
<rect width="24" height="24" fill="white"/>
</clipPath>
</defs>
</svg>
