<svg width="24" height="24" viewBox="0 0 24 24" fill="none" xmlns="http://www.w3.org/2000/svg">
<g clip-path="url(#clip0_2635_21754)">
<path d="M20 0H4C1.79086 0 0 1.79086 0 4V20C0 22.2091 1.79086 24 4 24H20C22.2091 24 24 22.2091 24 20V4C24 1.79086 22.2091 0 20 0Z" fill="white"/>
<path d="M10.2099 7.70064C10.0661 7.67831 10.06 7.67571 10.1277 7.66528C10.2574 7.64531 10.5638 7.67254 10.775 7.72271C11.2679 7.83988 11.7164 8.14001 12.1951 8.67308L12.3223 8.81468L12.5043 8.78544C13.2708 8.66224 14.0506 8.76014 14.7028 9.06144C14.8822 9.14434 15.1651 9.30934 15.2005 9.35174C15.2117 9.36528 15.2324 9.45224 15.2464 9.54504C15.2949 9.86618 15.2706 10.1123 15.1724 10.2962C15.1189 10.3962 15.116 10.4279 15.1519 10.5136C15.1806 10.5819 15.2605 10.6324 15.3397 10.6323C15.5018 10.6321 15.6763 10.3701 15.7571 10.0055L15.7892 9.86074L15.8528 9.93281C16.2017 10.3281 16.4757 10.8672 16.5228 11.2509L16.5351 11.3509L16.4764 11.26C16.3755 11.1035 16.2741 10.9969 16.1443 10.911C15.9102 10.7561 15.6627 10.7034 15.0071 10.6688C14.4151 10.6376 14.0801 10.5871 13.7478 10.4787C13.1825 10.2944 12.8975 10.049 12.2261 9.16801C11.9278 8.77671 11.7435 8.56018 11.5601 8.38584C11.1435 7.98971 10.7341 7.78191 10.2099 7.70064Z" fill="#FF007A"/>
<path d="M15.3348 8.5749C15.3496 8.3127 15.3852 8.13976 15.4567 7.98183C15.485 7.9193 15.5115 7.86816 15.5156 7.86816C15.5197 7.86816 15.5074 7.91426 15.4882 7.9707C15.4363 8.12396 15.4278 8.33363 15.4636 8.57756C15.509 8.88703 15.5349 8.9317 15.862 9.26603C16.0154 9.42283 16.1939 9.62063 16.2586 9.70556L16.3762 9.85993L16.2586 9.7496C16.1147 9.6147 15.7838 9.3515 15.7108 9.3139C15.6618 9.28866 15.6545 9.2891 15.6243 9.3192C15.5964 9.34693 15.5906 9.38856 15.5867 9.5855C15.5807 9.8924 15.5388 10.0894 15.4379 10.2864C15.3833 10.3929 15.3747 10.3702 15.4241 10.25C15.461 10.1602 15.4647 10.1207 15.4644 9.82356C15.4639 9.22656 15.393 9.08306 14.9774 8.83723C14.8721 8.77493 14.6986 8.6851 14.5918 8.6376C14.4851 8.59006 14.4003 8.5487 14.4034 8.5456C14.4152 8.5339 14.8205 8.6522 14.9836 8.71496C15.2263 8.8083 15.2664 8.8204 15.2958 8.80916C15.3156 8.8016 15.3251 8.74403 15.3348 8.5749Z" fill="#FF007A"/>
<path d="M10.4898 9.5958C10.1977 9.1937 10.017 8.57713 10.0561 8.11627L10.0682 7.97363L10.1347 7.98577C10.2595 8.0085 10.4748 8.08867 10.5756 8.14987C10.8522 8.3179 10.972 8.53907 11.0938 9.10707C11.1295 9.2734 11.1763 9.46167 11.1979 9.5254C11.2326 9.628 11.3636 9.86767 11.4702 10.0233C11.547 10.1354 11.496 10.1885 11.3263 10.1732C11.0672 10.1498 10.7162 9.90753 10.4898 9.5958Z" fill="#FF007A"/>
<path d="M14.9796 12.5885C13.6146 12.0389 13.1338 11.5618 13.1338 10.7569C13.1338 10.6384 13.1379 10.5415 13.1429 10.5415C13.1478 10.5415 13.2006 10.5806 13.2602 10.6284C13.537 10.8504 13.847 10.9452 14.7051 11.0704C15.21 11.1441 15.4942 11.2036 15.7563 11.2905C16.5894 11.5668 17.1049 12.1275 17.2278 12.8913C17.2635 13.1132 17.2426 13.5294 17.1847 13.7487C17.139 13.922 16.9994 14.2342 16.9624 14.2462C16.9522 14.2495 16.9421 14.2102 16.9395 14.1567C16.9255 13.87 16.7805 13.5907 16.5372 13.3816C16.2604 13.1438 15.8886 12.9545 14.9796 12.5885Z" fill="#FF007A"/>
<path d="M14.0216 12.817C14.0045 12.7152 13.9748 12.5852 13.9557 12.5281L13.9208 12.4243L13.9855 12.4969C14.0751 12.5974 14.1458 12.726 14.2058 12.8973C14.2515 13.028 14.2567 13.0668 14.2563 13.2792C14.256 13.4878 14.2503 13.5315 14.208 13.6491C14.1414 13.8347 14.0587 13.9662 13.9199 14.1074C13.6706 14.3612 13.35 14.5017 12.8874 14.56C12.807 14.5701 12.5726 14.5872 12.3666 14.5979C11.8473 14.6249 11.5055 14.6807 11.1984 14.7885C11.1543 14.8041 11.1149 14.8135 11.1109 14.8094C11.0984 14.7971 11.3076 14.6724 11.4802 14.5893C11.7237 14.4719 11.9661 14.4079 12.5093 14.3175C12.7776 14.2728 13.0546 14.2186 13.125 14.197C13.7894 13.9933 14.1309 13.4677 14.0216 12.817Z" fill="#FF007A"/>
<path d="M14.6474 13.9287C14.4661 13.5388 14.4244 13.1624 14.5238 12.8114C14.5344 12.7739 14.5515 12.7432 14.5618 12.7432C14.572 12.7432 14.6149 12.7663 14.6569 12.7946C14.7404 12.8508 14.908 12.9456 15.3546 13.189C15.9118 13.4928 16.2296 13.7281 16.4456 13.9969C16.6348 14.2323 16.7519 14.5003 16.8083 14.8272C16.8402 15.0124 16.8215 15.458 16.774 15.6444C16.6242 16.2324 16.276 16.6942 15.7793 16.9637C15.7065 17.0031 15.6412 17.0356 15.6341 17.0357C15.627 17.0359 15.6536 16.9685 15.6931 16.8859C15.8601 16.5367 15.8792 16.197 15.7528 15.8188C15.6755 15.5873 15.5178 15.3048 15.1994 14.8273C14.8292 14.2722 14.7385 14.1245 14.6474 13.9287Z" fill="#FF007A"/>
<path d="M9.52043 16.0316C10.027 15.6039 10.6573 15.3001 11.2314 15.2068C11.4788 15.1666 11.891 15.1825 12.1201 15.2412C12.4873 15.3352 12.8159 15.5457 12.9867 15.7965C13.1537 16.0416 13.2253 16.2552 13.2999 16.7305C13.3293 16.918 13.3613 17.1062 13.371 17.1489C13.427 17.3952 13.536 17.5921 13.6711 17.691C13.8856 17.8479 14.255 17.8577 14.6184 17.716C14.6801 17.6919 14.7337 17.6753 14.7374 17.679C14.7506 17.6921 14.5676 17.8146 14.4385 17.8791C14.2648 17.9659 14.1267 17.9994 13.9431 17.9994C13.6103 17.9994 13.334 17.8301 13.1034 17.4849C13.0581 17.4169 12.9561 17.2134 12.8768 17.0327C12.6333 16.4774 12.5132 16.3083 12.2305 16.1231C11.9845 15.9621 11.6673 15.9332 11.4286 16.0502C11.1151 16.204 11.0277 16.6045 11.2522 16.8584C11.3414 16.9593 11.5078 17.0464 11.6439 17.0633C11.8985 17.095 12.1173 16.9013 12.1173 16.6443C12.1173 16.4774 12.0531 16.3821 11.8916 16.3093C11.6711 16.2098 11.4341 16.3261 11.4352 16.5333C11.4357 16.6216 11.4741 16.6771 11.5627 16.7172C11.6195 16.7429 11.6208 16.7449 11.5745 16.7353C11.3721 16.6933 11.3247 16.4494 11.4874 16.2874C11.6828 16.093 12.0867 16.1788 12.2254 16.4442C12.2837 16.5557 12.2905 16.7777 12.2397 16.9117C12.126 17.2117 11.7944 17.3695 11.4581 17.2837C11.2291 17.2252 11.1358 17.1619 10.8598 16.8775C10.38 16.3834 10.1938 16.2876 9.50216 16.1796L9.36963 16.1589L9.52043 16.0316Z" fill="#FF007A"/>
<path fill-rule="evenodd" clip-rule="evenodd" d="M5.90246 4.9621C7.50453 6.90657 9.97453 9.934 10.0971 10.1035C10.1984 10.2434 10.1603 10.3693 9.98683 10.4679C9.89039 10.5227 9.69209 10.5783 9.59279 10.5783C9.48053 10.5783 9.35396 10.5242 9.26186 10.4368C9.19676 10.375 8.93393 9.98257 8.32723 9.0412C7.86299 8.3209 7.47449 7.72334 7.46389 7.7133C7.43939 7.6902 7.43979 7.69097 8.27986 9.19407C8.80736 10.1379 8.98543 10.4716 8.98543 10.5162C8.98543 10.607 8.96069 10.6547 8.84869 10.7796C8.66206 10.9878 8.57859 11.2218 8.51836 11.7061C8.45083 12.2489 8.26096 12.6323 7.73476 13.2886C7.42673 13.6727 7.37633 13.7432 7.29859 13.898C7.20073 14.093 7.17379 14.2022 7.16289 14.4484C7.15136 14.7087 7.17379 14.8769 7.25336 15.1258C7.32296 15.3437 7.39566 15.4876 7.58146 15.7753C7.74179 16.0237 7.83413 16.2082 7.83413 16.2804C7.83413 16.3379 7.84506 16.338 8.09353 16.2818C8.68816 16.1476 9.17099 15.9114 9.44253 15.622C9.61059 15.4429 9.65006 15.344 9.65133 15.0985C9.65216 14.9379 9.64653 14.9043 9.60309 14.8119C9.53249 14.6616 9.40386 14.5366 9.12036 14.3428C8.74893 14.0889 8.59029 13.8845 8.54646 13.6033C8.51049 13.3727 8.55219 13.2099 8.75769 12.7793C8.97039 12.3335 9.02309 12.1435 9.05873 11.6942C9.08179 11.4039 9.11366 11.2894 9.1971 11.1975C9.28406 11.1017 9.36239 11.0692 9.57763 11.0398C9.92863 10.9919 10.1521 10.9011 10.3358 10.7318C10.4952 10.5849 10.5618 10.4434 10.5721 10.2304L10.5799 10.069L10.4908 9.96517C10.1683 9.58914 5.68646 4.6665 5.66663 4.6665C5.66236 4.6665 5.76853 4.79954 5.90246 4.9621ZM8.01513 14.7429C8.08806 14.6138 8.04933 14.4478 7.92736 14.3667C7.81213 14.2901 7.63309 14.3262 7.63309 14.426C7.63309 14.4565 7.64996 14.4787 7.68793 14.4982C7.75186 14.5311 7.75649 14.5681 7.70623 14.6437C7.65526 14.7203 7.65933 14.7877 7.71779 14.8334C7.81199 14.9072 7.94533 14.8666 8.01513 14.7429Z" fill="#FF007A"/>
<path fill-rule="evenodd" clip-rule="evenodd" d="M10.8023 11.1248C10.6375 11.1754 10.4774 11.35 10.4278 11.5331C10.3975 11.6448 10.4147 11.8408 10.46 11.9013C10.5332 11.999 10.6039 12.0248 10.7956 12.0234C11.1708 12.0208 11.497 11.8599 11.5349 11.6587C11.566 11.4938 11.4228 11.2652 11.2255 11.1649C11.1236 11.1132 10.9071 11.0926 10.8023 11.1248ZM11.2409 11.4678C11.2988 11.3856 11.2735 11.2967 11.175 11.2366C10.9876 11.1222 10.7042 11.2168 10.7042 11.3939C10.7042 11.482 10.852 11.5782 10.9875 11.5782C11.0777 11.5782 11.2011 11.5244 11.2409 11.4678Z" fill="#FF007A"/>
</g>
<defs>
<clipPath id="clip0_2635_21754">
<rect width="24" height="24" fill="white"/>
</clipPath>
</defs>
</svg>
