<svg width="24" height="24" viewBox="0 0 24 24" fill="none" xmlns="http://www.w3.org/2000/svg">
<g clip-path="url(#clip0_42_115)">
<path d="M11.3646 0H12.615C13.9195 0.0864 15.2168 0.3468 16.4288 0.8364C19.429 2.016 21.9047 4.4628 23.1131 7.4532C24.7764 11.4348 24.0624 16.2912 21.2855 19.6044C19.4062 21.9108 16.6424 23.4816 13.6927 23.8812C10.9241 24.276 8.0188 23.6796 5.64988 22.1832C3.82339 21.0456 2.31131 19.4088 1.33206 17.4912C0.0756 15.0828 -0.306019 12.2364 0.246008 9.5796C0.836438 6.6348 2.59453 3.948 5.04625 2.2164C6.88234 0.888 9.10845 0.1404 11.3646 0ZM10.6205 0.5436C6.96994 0.9624 3.61458 3.2616 1.87449 6.4944C0.697231 8.6436 0.226807 11.178 0.582025 13.6056C0.984045 16.5288 2.57412 19.2636 4.90224 21.0732C6.67473 22.4712 8.86724 23.3292 11.1186 23.4972C13.6687 23.7 16.28 23.0196 18.3969 21.5832C20.9926 19.8648 22.8347 17.0544 23.364 13.986C23.6688 12.1776 23.5656 10.2936 23.0063 8.5452C22.2083 6.0024 20.4982 3.7548 18.2541 2.3148C16.0232 0.8508 13.2691 0.216 10.6205 0.5436Z" fill="#00206B"/>
<path d="M10.9097 5.2692C12.9966 4.92 15.2348 5.604 16.736 7.1016C18.0681 8.3592 18.8457 10.1868 18.8073 12.0192C18.8337 13.842 18.0525 15.6552 16.7264 16.902C15.2828 18.3372 13.1599 19.0224 11.1474 18.7572C9.25126 18.5292 7.47637 17.4516 6.39872 15.8736C5.20586 14.184 4.87704 11.9352 5.49627 9.966C6.22111 7.542 8.41002 5.6472 10.9097 5.2692ZM11.3262 5.6844C11.3274 6.2808 11.3286 6.8772 11.3274 7.4736C11.625 7.4736 11.9226 7.4736 12.2202 7.4748C12.2214 6.8628 12.2226 6.2508 12.2202 5.64C11.9226 5.6496 11.6238 5.664 11.3262 5.6844V5.6844ZM13.4731 7.5024C14.2567 7.608 15.0992 7.728 15.7244 8.2572C16.6784 9.114 16.5548 10.9128 15.3872 11.5344C16.0868 11.6976 16.7792 12.1644 16.952 12.8988C17.1765 13.8624 16.9976 15.0192 16.2236 15.6984C15.4568 16.3296 14.4187 16.4124 13.4707 16.5024C13.4755 17.0604 13.4731 17.6184 13.4719 18.1776C15.4676 17.6892 17.1897 16.2036 17.9217 14.2812C18.6165 12.5076 18.4521 10.4208 17.4717 8.7876C16.6052 7.314 15.1316 6.2316 13.4767 5.8164C13.4719 6.378 13.4719 6.9396 13.4731 7.5024V7.5024ZM7.51718 7.4784C8.38122 7.5204 9.24646 7.5108 10.1117 7.5096C10.1117 6.9828 10.1129 6.4572 10.1093 5.9304C9.14086 6.2448 8.27801 6.8088 7.51718 7.4784ZM7.41397 7.548C7.18476 7.83 6.75994 8.3628 6.50792 8.8344C5.49147 10.566 5.37627 12.7884 6.22471 14.61C6.95675 16.2432 8.40882 17.514 10.1093 18.0612C10.1117 17.5356 10.1105 17.01 10.1105 16.4856C9.24286 16.4772 8.37282 16.5084 7.50637 16.4616C7.51597 15.978 7.62998 15.5052 7.79439 15.0492C8.21921 15.0408 8.66203 15.1152 9.07245 14.976C9.31246 14.7744 9.24406 14.4408 9.25726 14.1648C9.24406 12.5868 9.26326 11.0088 9.24886 9.432C9.26446 9.1776 9.10485 8.9028 8.84084 8.8524C8.40522 8.7648 7.9564 8.7996 7.51597 8.796C7.46437 8.4408 7.45837 8.082 7.45357 7.7232C7.45357 7.7232 7.45957 7.6104 7.42117 7.5372L7.41397 7.548V7.548ZM11.3634 8.904V11.2296C12.1398 11.2152 13.0014 11.3016 13.6807 10.8504C14.2447 10.4808 14.2087 9.546 13.6267 9.2136C12.9462 8.8116 12.117 8.9256 11.3634 8.904V8.904ZM11.3634 12.4812V15.0612C12.3222 14.9844 13.3975 15.1452 14.2315 14.5668C14.8279 14.1708 14.7559 13.1904 14.1415 12.8472C13.3063 12.348 12.291 12.5064 11.3634 12.4812V12.4812ZM11.3286 16.5204C11.3286 17.1168 11.3274 17.7144 11.3262 18.3108C11.637 18.3312 11.9466 18.3432 12.2574 18.3528C12.2598 17.742 12.2586 17.1312 12.2586 16.5204H11.3286V16.5204Z" fill="#00206B"/>
<path d="M10.6901 1.16641C12.7926 0.940808 14.9695 1.26121 16.8584 2.23081C19.2886 3.42241 21.2315 5.56441 22.1891 8.09521C23.166 10.6296 23.1444 13.5288 22.1327 16.0512C20.5942 20.0268 16.532 22.8852 12.255 22.8912C9.74329 22.9824 7.21596 22.1376 5.24906 20.5752C3.15136 18.9444 1.70049 16.5072 1.25286 13.8876C0.79564 11.2932 1.30807 8.53681 2.69533 6.29401C4.39102 3.48121 7.42837 1.53721 10.6901 1.16641ZM10.3241 4.68721C8.61523 5.07241 7.05275 6.08161 6.0051 7.48681C4.84824 9.00841 4.31782 10.9872 4.55423 12.882C4.77624 14.91 5.88389 16.8228 7.53158 18.024C9.07365 19.1832 11.0778 19.692 12.9858 19.4304C15.344 19.1424 17.5125 17.6412 18.6129 15.5352C19.4374 14.0328 19.663 12.2472 19.3606 10.5708C18.9753 8.53801 17.7057 6.69121 15.9392 5.61361C14.2855 4.58401 12.2214 4.25401 10.3241 4.68721V4.68721Z" fill="#EBA809"/>
</g>
<defs>
<clipPath id="clip0_42_115">
<rect width="24" height="24" fill="white"/>
</clipPath>
</defs>
</svg>
