<svg width="24" height="24" viewBox="0 0 24 24" fill="none" xmlns="http://www.w3.org/2000/svg">
<circle cx="12" cy="12" r="12" fill="#2775CA"/>
<path d="M15.7 13.8C15.7 12.0501 14.65 11.4501 12.55 11.2001C11.05 11.0001 10.75 10.6001 10.75 9.90001C10.75 9.19993 11.25 8.75005 12.25 8.75005C13.15 8.75005 13.65 9.05005 13.9 9.80005C13.95 9.95005 14.1 10.05 14.25 10.05H15.0499C15.25 10.05 15.4 9.90001 15.4 9.70009V9.65005C15.1999 8.55001 14.2999 7.70004 13.15 7.60008V6.40008C13.15 6.20004 13 6.05004 12.75 6H12C11.8 6 11.65 6.15 11.5999 6.40008V7.55004C10.0999 7.75008 9.15 8.75005 9.15 10.0001C9.15 11.6501 10.15 12.3 12.25 12.5501C13.65 12.8001 14.1 13.1001 14.1 13.9001C14.1 14.7001 13.3999 15.2501 12.45 15.2501C11.1499 15.2501 10.6999 14.7 10.5499 13.95C10.5 13.7501 10.35 13.65 10.2 13.65H9.34992C9.15 13.65 9 13.8 9 14.0001V14.0501C9.19992 15.3 9.99996 16.2 11.65 16.4501V17.6501C11.65 17.85 11.8 18 12.0499 18.0501H12.7999C13 18.0501 13.15 17.9001 13.2 17.6501V16.4501C14.7 16.2 15.7 15.15 15.7 13.8V13.8Z" fill="white"/>
</svg>
