<svg width="24" height="24" viewBox="0 0 24 24" fill="none" xmlns="http://www.w3.org/2000/svg">
<circle cx="12" cy="12" r="12" fill="#23292F"/>
<path d="M17.6562 18H19.9687L15.1562 13.6845C13.4134 12.1225 10.5878 12.1225 8.84373 13.6845L4.02936 18H6.34373L9.99998 14.7218C10.5327 14.2463 11.2506 13.9797 11.9986 13.9797C12.7465 13.9797 13.4645 14.2463 13.9972 14.7218L17.6562 18Z" fill="white"/>
<path d="M6.31406 5.99999H4L8.84375 10.3421C10.5866 11.904 13.4122 11.904 15.1562 10.3421L20 5.99999H17.6875L14 9.3048C13.4673 9.7803 12.7494 10.0469 12.0014 10.0469C11.2534 10.0469 10.5355 9.7803 10.0028 9.3048L6.31406 5.99999Z" fill="white"/>
</svg>
